<svg width="636" height="636" viewBox="0 0 636 636" fill="none" xmlns="http://www.w3.org/2000/svg">
<g filter="url(#filter0_d_0_541)">
<path d="M255.16 582.836L47.8608 352.607C22.3618 324.287 24.6483 280.659 52.9678 255.16L283.197 47.8608C311.516 22.3618 355.145 24.6483 380.644 52.9678L587.943 283.197C613.442 311.516 611.155 355.145 582.836 380.644L352.607 587.943C324.287 613.442 280.659 611.155 255.16 582.836Z" stroke="#7900FF" stroke-width="2"/>
<path d="M272.632 540.663L110.033 360.079C84.5343 331.76 86.8208 288.131 115.14 262.632L295.724 100.033C324.044 74.5344 367.673 76.8208 393.171 105.14L555.77 285.725C581.269 314.044 578.983 357.673 550.663 383.172L370.079 545.77C341.76 571.269 298.131 568.983 272.632 540.663Z" stroke="#7900FF" stroke-width="2"/>
<path opacity="0.16" fill-rule="evenodd" clip-rule="evenodd" d="M373.698 506.229C353.176 524.707 321.562 523.05 303.084 502.529L164.574 348.698C146.096 328.176 147.753 296.562 168.275 278.084L322.106 139.574C342.627 121.096 374.242 122.753 392.719 143.275L531.23 297.106C549.707 317.627 548.05 349.242 527.529 367.719L373.698 506.229Z" fill="#7900FF"/>
<path fill-rule="evenodd" clip-rule="evenodd" d="M374.907 455.105C361.774 466.931 341.54 465.871 329.715 452.737L235.367 347.953C223.542 334.82 224.602 314.586 237.736 302.761L348.093 203.395C361.226 191.569 381.46 192.629 393.285 205.763L487.633 310.547C499.458 323.68 498.398 343.914 485.264 355.739L374.907 455.105Z" fill="#7900FF"/>
<path d="M310.92 307.48C308.707 307.48 306.653 307.12 304.76 306.4C302.893 305.68 301.267 304.667 299.88 303.36C298.52 302.053 297.453 300.52 296.68 298.76C295.933 297 295.56 295.08 295.56 293C295.56 290.92 295.933 289 296.68 287.24C297.453 285.48 298.533 283.947 299.92 282.64C301.307 281.333 302.933 280.32 304.8 279.6C306.667 278.88 308.693 278.52 310.88 278.52C313.093 278.52 315.12 278.88 316.96 279.6C318.827 280.32 320.44 281.333 321.8 282.64C323.187 283.947 324.267 285.48 325.04 287.24C325.813 288.973 326.2 290.893 326.2 293C326.2 295.08 325.813 297.013 325.04 298.8C324.267 300.56 323.187 302.093 321.8 303.4C320.44 304.68 318.827 305.68 316.96 306.4C315.12 307.12 313.107 307.48 310.92 307.48ZM310.88 301.96C312.133 301.96 313.28 301.747 314.32 301.32C315.387 300.893 316.32 300.28 317.12 299.48C317.92 298.68 318.533 297.733 318.96 296.64C319.413 295.547 319.64 294.333 319.64 293C319.64 291.667 319.413 290.453 318.96 289.36C318.533 288.267 317.92 287.32 317.12 286.52C316.347 285.72 315.427 285.107 314.36 284.68C313.293 284.253 312.133 284.04 310.88 284.04C309.627 284.04 308.467 284.253 307.4 284.68C306.36 285.107 305.44 285.72 304.64 286.52C303.84 287.32 303.213 288.267 302.76 289.36C302.333 290.453 302.12 291.667 302.12 293C302.12 294.307 302.333 295.52 302.76 296.64C303.213 297.733 303.827 298.68 304.6 299.48C305.4 300.28 306.333 300.893 307.4 301.32C308.467 301.747 309.627 301.96 310.88 301.96ZM339.71 307.32C337.923 307.32 336.323 306.973 334.91 306.28C333.523 305.587 332.443 304.533 331.67 303.12C330.897 301.68 330.51 299.853 330.51 297.64V285.48H336.75V296.72C336.75 298.507 337.123 299.827 337.87 300.68C338.643 301.507 339.723 301.92 341.11 301.92C342.07 301.92 342.923 301.72 343.67 301.32C344.417 300.893 345.003 300.253 345.43 299.4C345.857 298.52 346.07 297.427 346.07 296.12V285.48H352.31V307H346.39V301.08L347.47 302.8C346.75 304.293 345.683 305.427 344.27 306.2C342.883 306.947 341.363 307.32 339.71 307.32ZM358.091 307V285.48H364.051V291.56L363.211 289.8C363.851 288.28 364.878 287.133 366.291 286.36C367.704 285.56 369.424 285.16 371.451 285.16V290.92C371.184 290.893 370.944 290.88 370.731 290.88C370.518 290.853 370.291 290.84 370.051 290.84C368.344 290.84 366.958 291.333 365.891 292.32C364.851 293.28 364.331 294.787 364.331 296.84V307H358.091ZM305.72 363L293.64 335H300.64L311.2 359.8H307.08L317.8 335H324.24L312.12 363H305.72ZM337.736 363V358.8L337.336 357.88V350.36C337.336 349.027 336.923 347.987 336.096 347.24C335.296 346.493 334.056 346.12 332.376 346.12C331.23 346.12 330.096 346.307 328.976 346.68C327.883 347.027 326.95 347.507 326.176 348.12L323.936 343.76C325.11 342.933 326.523 342.293 328.176 341.84C329.83 341.387 331.51 341.16 333.216 341.16C336.496 341.16 339.043 341.933 340.856 343.48C342.67 345.027 343.576 347.44 343.576 350.72V363H337.736ZM331.176 363.32C329.496 363.32 328.056 363.04 326.856 362.48C325.656 361.893 324.736 361.107 324.096 360.12C323.456 359.133 323.136 358.027 323.136 356.8C323.136 355.52 323.443 354.4 324.056 353.44C324.696 352.48 325.696 351.733 327.056 351.2C328.416 350.64 330.19 350.36 332.376 350.36H338.096V354H333.056C331.59 354 330.576 354.24 330.016 354.72C329.483 355.2 329.216 355.8 329.216 356.52C329.216 357.32 329.523 357.96 330.136 358.44C330.776 358.893 331.643 359.12 332.736 359.12C333.776 359.12 334.71 358.88 335.536 358.4C336.363 357.893 336.963 357.16 337.336 356.2L338.296 359.08C337.843 360.467 337.016 361.52 335.816 362.24C334.616 362.96 333.07 363.32 331.176 363.32ZM349.224 363V333.32H355.464V363H349.224ZM370.335 363.32C368.548 363.32 366.948 362.973 365.535 362.28C364.148 361.587 363.068 360.533 362.295 359.12C361.522 357.68 361.135 355.853 361.135 353.64V341.48H367.375V352.72C367.375 354.507 367.748 355.827 368.495 356.68C369.268 357.507 370.348 357.92 371.735 357.92C372.695 357.92 373.548 357.72 374.295 357.32C375.042 356.893 375.628 356.253 376.055 355.4C376.482 354.52 376.695 353.427 376.695 352.12V341.48H382.935V363H377.015V357.08L378.095 358.8C377.375 360.293 376.308 361.427 374.895 362.2C373.508 362.947 371.988 363.32 370.335 363.32ZM399.396 363.32C396.943 363.32 394.783 362.84 392.916 361.88C391.076 360.92 389.649 359.613 388.636 357.96C387.623 356.28 387.116 354.373 387.116 352.24C387.116 350.08 387.609 348.173 388.596 346.52C389.609 344.84 390.983 343.533 392.716 342.6C394.449 341.64 396.409 341.16 398.596 341.16C400.703 341.16 402.596 341.613 404.276 342.52C405.983 343.4 407.329 344.68 408.316 346.36C409.303 348.013 409.796 350 409.796 352.32C409.796 352.56 409.783 352.84 409.756 353.16C409.729 353.453 409.703 353.733 409.676 354H392.196V350.36H406.396L403.996 351.44C403.996 350.32 403.769 349.347 403.316 348.52C402.863 347.693 402.236 347.053 401.436 346.6C400.636 346.12 399.703 345.88 398.636 345.88C397.569 345.88 396.623 346.12 395.796 346.6C394.996 347.053 394.369 347.707 393.916 348.56C393.463 349.387 393.236 350.373 393.236 351.52V352.48C393.236 353.653 393.489 354.693 393.996 355.6C394.529 356.48 395.263 357.16 396.196 357.64C397.156 358.093 398.276 358.32 399.556 358.32C400.703 358.32 401.703 358.147 402.556 357.8C403.436 357.453 404.236 356.933 404.956 356.24L408.276 359.84C407.289 360.96 406.049 361.827 404.556 362.44C403.063 363.027 401.343 363.32 399.396 363.32ZM421.19 363.32C419.35 363.32 417.577 363.107 415.87 362.68C414.19 362.227 412.857 361.667 411.87 361L413.95 356.52C414.937 357.133 416.097 357.64 417.43 358.04C418.79 358.413 420.124 358.6 421.43 358.6C422.87 358.6 423.884 358.427 424.47 358.08C425.084 357.733 425.39 357.253 425.39 356.64C425.39 356.133 425.15 355.76 424.67 355.52C424.217 355.253 423.604 355.053 422.83 354.92C422.057 354.787 421.204 354.653 420.27 354.52C419.364 354.387 418.444 354.213 417.51 354C416.577 353.76 415.724 353.413 414.95 352.96C414.177 352.507 413.55 351.893 413.07 351.12C412.617 350.347 412.39 349.347 412.39 348.12C412.39 346.76 412.777 345.56 413.55 344.52C414.35 343.48 415.497 342.667 416.99 342.08C418.484 341.467 420.27 341.16 422.35 341.16C423.817 341.16 425.31 341.32 426.83 341.64C428.35 341.96 429.617 342.427 430.63 343.04L428.55 347.48C427.51 346.867 426.457 346.453 425.39 346.24C424.35 346 423.337 345.88 422.35 345.88C420.964 345.88 419.95 346.067 419.31 346.44C418.67 346.813 418.35 347.293 418.35 347.88C418.35 348.413 418.577 348.813 419.03 349.08C419.51 349.347 420.137 349.56 420.91 349.72C421.684 349.88 422.524 350.027 423.43 350.16C424.364 350.267 425.297 350.44 426.23 350.68C427.164 350.92 428.004 351.267 428.75 351.72C429.524 352.147 430.15 352.747 430.63 353.52C431.11 354.267 431.35 355.253 431.35 356.48C431.35 357.813 430.95 359 430.15 360.04C429.35 361.053 428.19 361.853 426.67 362.44C425.177 363.027 423.35 363.32 421.19 363.32Z" fill="white"/>
<path d="M202.5 394.25C202.5 410.113 189.532 423 173.5 423C157.468 423 144.5 410.113 144.5 394.25C144.5 378.387 157.468 365.5 173.5 365.5C189.532 365.5 202.5 378.387 202.5 394.25Z" fill="#00BCD4" stroke="white" stroke-width="4"/>
<ellipse cx="173.5" cy="394.212" rx="4.85714" ry="4.88474" fill="white"/>
<path fill-rule="evenodd" clip-rule="evenodd" d="M165 394.212C165 391.395 166.408 388.93 168.515 387.569L166.759 385.698C166.284 386.05 165.834 386.449 165.417 386.894C163.582 388.848 162.571 391.447 162.571 394.212C162.571 396.976 163.582 399.575 165.417 401.53C165.834 401.975 166.284 402.374 166.759 402.725L168.515 400.855C166.408 399.494 165 397.028 165 394.212V394.212Z" fill="white"/>
<path fill-rule="evenodd" clip-rule="evenodd" d="M182 394.212C182 397.028 180.592 399.494 178.485 400.855L180.241 402.725C180.716 402.374 181.166 401.975 181.583 401.53C183.418 399.575 184.429 396.976 184.429 394.212C184.429 391.447 183.418 388.848 181.583 386.894C181.166 386.449 180.716 386.05 180.241 385.698L178.485 387.569C180.592 388.93 182 391.395 182 394.212V394.212Z" fill="white"/>
<path fill-rule="evenodd" clip-rule="evenodd" d="M158.929 394.212C158.929 389.97 160.845 386.205 163.806 383.846L162.073 382C161.618 382.382 161.182 382.793 160.768 383.235C159.431 384.66 158.38 386.32 157.646 388.168C156.886 390.084 156.5 392.117 156.5 394.212C156.5 396.306 156.886 398.34 157.646 400.255C158.38 402.104 159.431 403.764 160.768 405.189C161.182 405.63 161.618 406.042 162.073 406.424L163.806 404.578C160.845 402.219 158.929 398.454 158.929 394.212V394.212Z" fill="white"/>
<path fill-rule="evenodd" clip-rule="evenodd" d="M188.071 394.212C188.071 398.454 186.155 402.219 183.194 404.578L184.927 406.398C185.382 406.016 185.818 405.63 186.232 405.189C187.569 403.764 188.62 402.104 189.354 400.255C190.114 398.34 190.5 396.306 190.5 394.212C190.5 392.117 190.114 390.084 189.354 388.168C188.62 386.319 187.569 384.66 186.232 383.235C185.818 382.793 185.382 382.382 184.927 382L183.194 383.846C186.155 386.205 188.071 389.97 188.071 394.212V394.212Z" fill="white"/>
<path d="M100 467.75C100 479.189 90.6186 488.5 79 488.5C67.3814 488.5 58 479.189 58 467.75C58 456.311 67.3814 447 79 447C90.6186 447 100 456.311 100 467.75Z" fill="#A36AF2" stroke="white" stroke-width="4"/>
<path fill-rule="evenodd" clip-rule="evenodd" d="M77.2143 462.643C77.2143 463.631 78.0123 464.429 79 464.429V464.429C79.9877 464.429 80.7857 463.631 80.7857 462.643V457.286C80.7857 456.298 79.9877 455.5 79 455.5V455.5C78.0123 455.5 77.2143 456.298 77.2143 457.286V462.643V462.643Z" fill="white"/>
<path fill-rule="evenodd" clip-rule="evenodd" d="M79 471.571C79.9877 471.571 80.7857 472.369 80.7857 473.357V478.714C80.7857 479.702 79.9877 480.5 79 480.5C78.0123 480.5 77.2143 479.702 77.2143 478.714V473.357C77.2143 472.369 78.0123 471.571 79 471.571V471.571V471.571Z" fill="white"/>
<path fill-rule="evenodd" clip-rule="evenodd" d="M68.2857 466.214H73.6428C74.6306 466.214 75.4286 467.012 75.4286 468C75.4286 468.988 74.6306 469.786 73.6428 469.786H68.2857C67.298 469.786 66.5 468.988 66.5 468C66.5 467.012 67.298 466.214 68.2857 466.214V466.214V466.214Z" fill="white"/>
<path fill-rule="evenodd" clip-rule="evenodd" d="M84.3571 466.214H89.7143C90.702 466.214 91.5 467.012 91.5 468C91.5 468.988 90.702 469.786 89.7143 469.786H84.3571C83.3694 469.786 82.5714 468.988 82.5714 468C82.5714 467.012 83.3694 466.214 84.3571 466.214V466.214V466.214Z" fill="white"/>
<path fill-rule="evenodd" clip-rule="evenodd" d="M73.9498 465.472C74.6473 466.17 75.7801 466.17 76.4777 465.472V465.472C77.1752 464.775 77.1752 463.642 76.4777 462.944L72.6886 459.155C71.9911 458.458 70.8582 458.458 70.1607 459.155V459.155C69.4632 459.853 69.4632 460.985 70.1607 461.683L73.9498 465.472V465.472Z" fill="white"/>
<path fill-rule="evenodd" clip-rule="evenodd" d="M81.5279 470.528C82.2254 469.83 83.3582 469.83 84.0558 470.528L87.8449 474.317C88.5424 475.015 88.5424 476.147 87.8449 476.845C87.1473 477.542 86.0145 477.542 85.317 476.845L81.5279 473.056C80.8303 472.353 80.8303 471.225 81.5279 470.528V470.528V470.528Z" fill="white"/>
<path fill-rule="evenodd" clip-rule="evenodd" d="M70.1607 474.311L73.9498 470.522C74.6473 469.825 75.7801 469.825 76.4777 470.522C77.1752 471.22 77.1752 472.353 76.4777 473.05L72.6886 476.839C71.9911 477.537 70.8582 477.537 70.1607 476.839C69.4632 476.142 69.4632 475.009 70.1607 474.311V474.311V474.311Z" fill="white"/>
<path fill-rule="evenodd" clip-rule="evenodd" d="M81.5279 462.95L85.317 459.161C86.0145 458.463 87.1473 458.463 87.8449 459.161C88.5424 459.858 88.5424 460.991 87.8449 461.689L84.0558 465.478C83.3582 466.175 82.2254 466.175 81.5279 465.478C80.8303 464.78 80.8303 463.647 81.5279 462.95V462.95V462.95Z" fill="white"/>
<path d="M568.5 256.25C568.5 267.689 559.119 277 547.5 277C535.881 277 526.5 267.689 526.5 256.25C526.5 244.811 535.881 235.5 547.5 235.5C559.119 235.5 568.5 244.811 568.5 256.25Z" fill="#2196F3" stroke="white" stroke-width="4"/>
<path fill-rule="evenodd" clip-rule="evenodd" d="M547.5 263.793L539.775 268.5L541.819 259.621L535 253.651L543.989 252.871L547.5 244.5L551.011 252.871L560 253.651L553.181 259.621L555.225 268.5L547.5 263.793Z" fill="white"/>
<path d="M491.5 173.75C491.5 181.314 485.262 187.5 477.5 187.5C469.738 187.5 463.5 181.314 463.5 173.75C463.5 166.186 469.738 160 477.5 160C485.262 160 491.5 166.186 491.5 173.75Z" fill="#651FFF" stroke="white" stroke-width="4"/>
<path fill-rule="evenodd" clip-rule="evenodd" d="M471 171.944C471 171.516 471.217 171.119 471.588 170.905L477.5 168L483.412 170.905C483.752 171.119 484 171.516 484 171.944V177.778C484 178.45 483.443 179 482.762 179H472.238C471.557 179 471 178.45 471 177.778V171.944ZM477.5 174.875L482.473 171.667L477.5 169.222L472.527 171.667L477.5 174.875Z" fill="white"/>
<path d="M511.5 476.75C511.5 504.217 489.123 526.5 461.5 526.5C433.877 526.5 411.5 504.217 411.5 476.75C411.5 449.283 433.877 427 461.5 427C489.123 427 511.5 449.283 511.5 476.75Z" fill="#651FFF" stroke="white" stroke-width="4"/>
<path fill-rule="evenodd" clip-rule="evenodd" d="M469.281 474.125V474.125C469.158 474.074 469.035 474.022 468.922 473.95C468.203 473.54 467.669 472.831 467.494 471.979L465.594 459.894L465.573 459.298C465.573 458.569 465.994 458.251 466.6 457.963V457.963C466.672 457.933 466.744 457.902 466.816 457.871C467.556 457.522 468.059 457.07 468.059 456.197C468.059 454.133 467.391 454 466.189 454H456.811C455.609 454 454.941 454.123 454.941 456.197C454.941 457.07 455.444 457.522 456.184 457.871C456.256 457.902 456.328 457.922 456.4 457.963V457.963C457.006 458.261 457.427 458.579 457.427 459.298L457.406 459.894L455.506 471.979C455.331 472.831 454.797 473.54 454.078 473.95C453.965 474.022 453.842 474.074 453.719 474.125V474.125C451.695 475.172 450 477.288 450 479.742C450 481.374 450.36 481.929 451.561 481.929H459.851L461.084 500H461.906L463.138 481.929H471.439C472.64 481.929 473 481.446 473 479.742C473 477.288 471.305 475.172 469.281 474.125V474.125Z" fill="white"/>
<circle cx="338.25" cy="50.75" r="45.25" fill="#00BCD4" stroke="white"/>
<path fill-rule="evenodd" clip-rule="evenodd" d="M360.705 41.1183C360.705 37.0756 357.763 33.8234 354.128 33.8234C349.204 33.5898 344.182 33.5 339.054 33.5C338.787 33.5 338.52 33.5 338.254 33.5C337.987 33.5 337.72 33.5 337.454 33.5C332.334 33.5 327.304 33.5898 322.38 33.8234C318.754 33.8234 315.812 37.0936 315.812 41.1363C315.589 44.3346 315.492 47.5328 315.501 50.7311C315.492 53.9293 315.589 57.1276 315.803 60.3348C315.803 64.3776 318.745 67.6567 322.371 67.6567C327.544 67.8993 332.85 68.0071 338.245 67.9981C343.649 68.016 348.937 67.9082 354.119 67.6567C357.754 67.6567 360.696 64.3776 360.696 60.3348C360.909 57.1276 361.007 53.9293 360.998 50.7221C361.016 47.5238 360.918 44.3256 360.705 41.1183ZM333.899 59.5443V41.8909L346.786 50.7131L333.899 59.5443Z" fill="white"/>
<path d="M181 137.75C181 165.217 158.623 187.5 131 187.5C103.377 187.5 81 165.217 81 137.75C81 110.283 103.377 88 131 88C158.623 88 181 110.283 181 137.75Z" fill="#2196F3" stroke="white" stroke-width="4"/>
<path fill-rule="evenodd" clip-rule="evenodd" d="M156.154 119.331H146.418L140.591 113.466C140.591 113.466 140.562 113.438 140.548 113.438L140.519 113.409C139.654 112.546 138.486 112 137.159 112H125.043C123.63 112 122.375 112.604 121.495 113.567V113.581L115.798 119.331H105.846C103.163 119.331 101 121.43 101 124.104V153.156C101 155.829 103.163 158 105.846 158H156.154C158.822 158 161 155.829 161 153.156V124.104C161 121.43 158.822 119.331 156.154 119.331ZM131 150.741C123.659 150.741 117.673 144.761 117.673 137.429C117.673 130.084 123.659 124.118 131 124.118C138.356 124.118 144.327 130.084 144.327 137.429C144.327 144.761 138.356 150.741 131 150.741ZM155.245 127.022C154.135 127.022 153.226 126.116 153.226 124.995C153.226 123.874 154.135 122.968 155.245 122.968C156.356 122.968 157.264 123.874 157.264 124.995C157.264 126.116 156.356 127.022 155.245 127.022Z" fill="white"/>
<path fill-rule="evenodd" clip-rule="evenodd" d="M131 127.367C125.433 127.367 120.933 131.866 120.933 137.429C120.933 142.978 125.433 147.492 131 147.492C136.553 147.492 141.067 142.993 141.067 137.429C141.067 131.866 136.553 127.367 131 127.367V127.367Z" fill="white"/>
</g>
<defs>
<filter id="filter0_d_0_541" x="25.1372" y="5" width="585.529" height="609.666" filterUnits="userSpaceOnUse" color-interpolation-filters="sRGB">
<feFlood flood-opacity="0" result="BackgroundImageFix"/>
<feColorMatrix in="SourceAlpha" type="matrix" values="0 0 0 0 0 0 0 0 0 0 0 0 0 0 0 0 0 0 127 0" result="hardAlpha"/>
<feOffset dy="4"/>
<feGaussianBlur stdDeviation="2"/>
<feComposite in2="hardAlpha" operator="out"/>
<feColorMatrix type="matrix" values="0 0 0 0 0 0 0 0 0 0 0 0 0 0 0 0 0 0 0.25 0"/>
<feBlend mode="normal" in2="BackgroundImageFix" result="effect1_dropShadow_0_541"/>
<feBlend mode="normal" in="SourceGraphic" in2="effect1_dropShadow_0_541" result="shape"/>
</filter>
</defs>
</svg>
